# xmcd CD database file
#
# Track frame offsets:
#	150
#	7390
#	27872
#	44092
#	61212
#	74485
#	92412
#	108677
#	123879
#	140880
#
# Disc length: 1977 seconds
#
# Revision: 0
# Processed by: cddbd v1.5PL3 Copyright (c) Steve Scherf et al.
# Submitted via: CDex 1.50beta9
#
DISCID=9507b70a
DTITLE=畑亜貴 - 棺桶島
DYEAR=1900
DGENRE=JPop
TTITLE0=天狼星 (1995.9.23 live opening)
TTITLE1=棺桶島
TTITLE2=不可侵
TTITLE3=囚われる
TTITLE4=離宮
TTITLE5=卑金属
TTITLE6=涙の木には叫ぶ花
TTITLE7=可虐
TTITLE8=咀嚼夢魔
TTITLE9=メソポタミア (1995.6.28 live opening)
EXTD=
EXTT0=
EXTT1=
EXTT2=
EXTT3=
EXTT4=
EXTT5=
EXTT6=
EXTT7=
EXTT8=
EXTT9=
PLAYORDER=
